<?xml version="1.0" encoding="utf-8"?>
<!-- Generator: Adobe Illustrator 16.0.0, SVG Export Plug-In . SVG Version: 6.00 Build 0)  -->
<!DOCTYPE svg PUBLIC "-//W3C//DTD SVG 1.1//EN" "http://www.w3.org/Graphics/SVG/1.1/DTD/svg11.dtd">
<svg version="1.1" id="Layer_1" xmlns="http://www.w3.org/2000/svg" xmlns:xlink="http://www.w3.org/1999/xlink" x="0px" y="0px"
	 width="560px" height="960px" viewBox="0 0 560 960" enable-background="new 0 0 560 960" xml:space="preserve">
<g>
	<path fill-rule="evenodd" clip-rule="evenodd" d="M272.541,402.885c0-8.363-0.419-16.753,0.12-25.081
		c0.52-8.039-2.586-15.715-1.642-23.709c-1.973-2.843-1.94-6.187-1.39-9.229c0.625-3.465-2.406-5.979-1.666-9.28
		c0.166-0.738-0.117-1.756-0.815-1.683c-0.788,0.083-0.383,1.545-0.743,1.844c-2.922,2.417-3.464,6.283-5.723,9.072
		c-0.318,0.392-0.711,0.722-1.069,1.08c-0.255-0.399-0.767-0.832-0.722-1.192c0.3-2.37-1.089-5.081,1.342-7.035
		c1.134-7.551,3.768-14.739,5.006-22.333c1.18-7.222,0.855-14.317,1.245-21.467c0.023-0.415,0.475-0.805,0.728-1.208
		c0.36,0.358,0.695,0.743,1.08,1.066c2.412,2.034,1.29,4.796,1.098,7.099c-0.502,6.022,2.909,9.934,7.074,12.976
		c2.522,1.844,6.087,2.438,9.285,3.138c5.328,1.169,8.049,4.126,8.08,9.523c0.029,4.814,1.078,9.946-0.229,14.376
		c-2.354,7.972-1.938,16.076-0.889,23.712c1.027,7.484,0.916,14.839,1.012,22.236c0.061,4.847-2.17,9.593-1.402,14.573
		c3.047,19.748,0.787,39.629,1.555,59.433c0.186,4.799,2.637,9.005,4.256,13.426c1.291,3.529,3.357,6.888,3.268,10.793
		c-0.066,2.84,2.17,4.265,3.832,5.168c6.707,3.653,10.258,9.122,11.496,16.52c0.43,2.571,2.127,4.684,3.852,6.78
		c3.375,4.102,8.172,6.391,11.852,10.11c17.463,17.659,35.086,35.161,52.635,52.735c2.066,2.072,4.354,3.927,5.451,6.863
		c0.59,1.579,3.531,2.057,1.35,4.866c-1.633,2.107-2.203,5.032-5.787,4.262c-2.803-0.602-5.18,0.865-7.744,1.484
		c-2.547,0.615-5.059,0.045-7.855,1.253c-3.42,1.475-7.965-0.229-10.57-3.047c-5.461-5.904-12.475-9.992-17.787-16.002
		c-0.775-0.879-1.955-1.419-2.887-2.076c-2.709-1.908-5.904-3.573-6.004-7.866c-0.039-1.64-1.584-3.469-2.863-4.813
		c-4.365-4.591-8.49-9.576-13.527-13.306c-4.248-3.146-7.791-6.875-11.592-10.404c-1.799-1.671-3.334-4.152-6.254-2.778
		c-2.885,1.358-2.102,4.247-2.105,6.683c-0.023,13.178,0.035,26.357-0.053,39.535c-0.016,2.622,0.826,5.399-1.385,7.82
		c-0.631,0.691-0.506,2.632-0.029,3.683c3.051,6.749,0.676,13.823,1.455,20.688c-2.25,3.884-1.891,8.214-1.396,12.281
		c0.686,5.653,1.914,11.302,3.596,16.739c0.531,1.712,0.779,3.297,0.811,4.954c0.092,4.813,0.244,9.642-0.021,14.442
		c-0.328,5.961,1.617,11.537,3.602,16.791c1.379,3.647,2.314,7.71,4.625,10.979c1.199,1.699,1.053,2.942,0.424,4.724
		c-1.902,5.378-4.748,10.558-4.033,16.579c-3.1,6.695-2.303,14.041-1.15,20.594c1.412,8.016,0.65,15.865,1.123,23.767
		c0.514,8.585-1.602,16.758-4.152,24.869c-0.578,1.835-0.678,4.03-0.283,5.91c0.484,2.302-2.416,3.223-1.672,5.49
		c0.344,1.05-0.242,1.891-1.6,1.831c-1.479-0.065-1.479-1.104-1.377-2.103c0.289-2.812-0.814-6.438-2.729-6.716
		c-3.441-0.502-3.785,3.626-4.828,6.119c-1.167,2.802-1.98,5.769-2.96,8.646c-0.795,2.333-2.196,1.562-3.458,1.599
		c-1.437,0.043-1.071-1.237-1.287-2.177c-1.381-6.008-2.934-12.014-4.018-18.047c-0.762-4.245-2.493-8.429-2.041-12.894
		c0.116-1.159-0.322-1.901-1.658-1.827c-0.89,0.049-1.478,0.501-1.352,1.354c0.785,5.346-0.496,10.635,1.116,16.214
		c1.626,5.633,1.237,12.212-2.659,17.634c-0.419,0.584-0.748,1.248-1.236,1.763c-1.555,1.63-5.438,1.224-4.752,4.688
		c0.505,2.543-1.38,4.061-1.688,6.224c-0.823,5.807-3.565,10.798-7.449,15.134c-1.857,2.072-3.893,3.991-5.905,5.92
		c-1.417,1.358-4.398,0.707-4.667-1.146c-0.322-2.226-0.715-4.715-0.054-6.758c1.881-5.815,1.446-11.96,2.971-17.771
		c1.403-5.351,3.17-10.546,3.22-16.235c0.014-1.642,1.268-4.275,3.296-5.353c2.731-1.45,4.416-3.546,3.995-6.563
		c-0.287-2.057,1.69-2.964,1.612-4.706c-0.122-2.714,1.396-3.567,3.809-4.487c3.76-1.434,6.661-5.265,7.983-9.374
		c0.77-2.396,0.49-4.486-1.306-6.788c-2.957-3.796-5.06-8.153-4.434-13.349c0.379-3.146,2.704-5.395,3.396-8.551
		c0.508-2.324,1.144-4.629,1.193-7.041c0.056-2.786-0.103-5.581,0.037-8.361c0.324-6.426-0.333-12.388-3.913-18.19
		c-3.205-5.199-3.041-12.982-0.959-19.84c0.924-3.045-1.111-6.533,1.56-9.232c-0.25-5.59,3.188-9.875,5.527-14.421
		c1.517-2.951,2.539-5.682,2.344-8.938c-0.058-0.977-0.219-2.179,0.242-2.92c2.76-4.438,0.048-7.874-2.358-10.878
		c-3.469-4.333-5.247-9.079-5.481-14.483c-0.143-3.287-1.061-7.102,0.251-9.745c1.445-2.91,0.027-6.425,2.641-8.857
		c0.513-0.478,0.118-1.938,0.121-2.944c0.009-2.28,0.003-4.563,0.003-6.842c0-4.816-0.183-9.64,0.05-14.443
		c0.238-4.874-0.366-9.663,1.186-14.667c1.364-4.393-0.146-9.59,0.392-14.346c0.713-6.334-1.881-11.888-3.176-17.753
		c-0.108-0.492-0.161-1.845-1.245-0.705c-4.075,4.286-9.902,5.568-14.825,8.359c-3.203,1.814-6.27,3.506-8.831,6.137
		c-3.919,4.028-7.103,8.593-10.303,13.196c-1.993,2.867-4.517,5.861-7.52,7.423c-5.338,2.776-8.458,7.411-11.538,11.978
		c-4.057,6.015-8.8,10.853-15.477,13.894c-2.73,1.244-5.126,2.794-6.627,6.176c-1.911,4.305-5.472,7.887-8.39,11.729
		c-0.759,0.999-1.627,2.253-2.701,2.601c-1.652,0.534-3.39,0.279-4.663-1.447c-0.958-1.298-0.613-2.048,0.246-3.192
		c2.444-3.256,2.775-5.941,2.218-10.009c-0.292-2.126,0.347-4.115,1.263-6.285c1.92-4.55,2.997-9.392,6.143-13.469
		c0.721-0.935,0.702-2.229,2.291-1.979c2.917,0.462,4.871-1.942,7.32-2.459c3.01-0.637,3.437-3.263,4.576-4.983
		c3.959-5.975,8.736-11.163,13.472-16.484c4.869-5.468,9.468-11.259,14.275-16.758c6.893-7.887,13.268-16.345,21.332-23.169
		c2.54-2.149,5.773-3.148,8.688-4.677c1.815-0.95,3.161-1.748,1.845-5.061c-1.616-4.067-2.466-8.769-2.343-13.557
		c0.123-4.822,0.43-9.62-0.986-14.672c-1.412-5.037-3.199-9.968-5.271-14.584c-2.974-6.625-4.604-13.331-5.964-20.396
		c-1.289-6.695-0.817-13.31-1.396-19.932c-0.357-4.081,2.185-7.472,1.722-11.556c-0.454-4.003-0.017-8.1-0.133-12.151
		c-0.059-2.037,2.664-3.163,1.604-5.476c-0.109-0.238,0.455-0.784,0.706-1.187c0.256,0.397,0.776,0.831,0.728,1.186
		c-0.801,5.868,0.84,11.706-1.022,17.778c-1.356,4.422-1.638,9.868,0.538,14.633c0.329,0.721,0.546,1.351,0.512,2.066
		c-0.429,8.996,3.218,16.715,7.444,24.298c1.478,2.65,2.461,5.572,3.828,8.291c0.855,1.699,1.341,3.703,3.195,4.752
		c1.361-2.151,3.523-1.43,5.455-1.51c0.896-0.037,1.353-0.475,1.383-1.347c0.057-1.713,1.903-2.644,1.598-4.703
		c-1.221-8.222,2.082-16.172,1.563-24.456C272.133,419.636,272.541,411.248,272.541,402.885z"/>
	<path fill-rule="evenodd" clip-rule="evenodd" d="M392.531,593.623c2.877-0.413,4.566,1.151,6.678,2.755
		c11.121,8.443,20.65,19.013,33.662,25.001c2.471,1.136,4.795,3.028,7.221,4.533c2.797,1.736,4.861,4.029,6.164,7.74
		c1.932,5.504,5.641,10.523,9.703,14.908c1.863,2.01,2.4,4.805,4.711,6.479c2.189,1.586,3.361,4.11,4.975,6.226
		c1.941,2.547,2.119,4.537,0.705,7.367c-2.125,4.254-3.9,8.635-3.783,13.669c0.068,3.059-1.15,6.141-1.711,9.187
		c-0.529,2.87-2.545,5.82-6.121,7.463c-6.615,3.037-12.824,6.952-19.205,10.501c-5.439,3.027-11.402,8.757-15.434,14.927
		c-6.211,9.5-12.506,18.854-20.033,27.482c-7.213,8.27-13.854,17.078-20.986,25.467c-2.195,2.584-4.283,5.308-6.543,7.884
		c-1.963,2.239-4.266,2.106-6.73,1.485c-0.422-0.107-0.67-0.892-1.092-1.006c-3.621-0.97-7.949-2.622-8.119-6.137
		c-0.143-2.983,2.15-6.671,4.869-9.199c2.184-2.032,4.725-4.916,3.652-7.419c-2.477-5.781,1.57-8.812,4.131-12.376
		c2.271-3.164,4.096-6.771,7.422-9.113c1.242-0.874,1.744-2.655,1.982-3.696c1.922-8.448,7.588-14.257,12.936-20.556
		c6.16-7.258,13.238-13.629,19.332-20.858c5.498-6.524,11-13.254,14.104-21.45c0.248-0.652,1.035-1.172,1.105-1.807
		c0.223-1.988,3.234-2.916,2.801-3.928c-0.799-1.873-2.346-3.68-3.691-5.246c-3.209-3.739-6.461-7.433-9.6-11.25
		c-2.617-3.185-4.941-6.505-6.875-10.1c-1.754-3.27-4.213-5.539-7.252-7.788c-7.893-5.842-15.852-11.785-21.119-20.443
		c-0.57-0.937-1.646-1.665-2.777-2.322c-3.801-2.21-6.176-9.167-4.664-12.697c0.324-0.753,1.178-0.656,1.797-0.95
		C380.418,595.673,386.771,595.74,392.531,593.623z"/>
	<path fill-rule="evenodd" clip-rule="evenodd" d="M304.484,149.952c0,4.306,0.1,8.614-0.021,12.917
		c-0.229,8.163-2.396,16.211-1.5,24.447c-2.709,5.154-1.191,10.713-1.492,16.089c-0.398,7.146-2.127,14.142-1.654,21.412
		c0.475,7.314,1.113,14.856-0.105,21.994c-2.563,15.012-0.443,30.026-1.396,44.993c-0.127,1.967,1.996,5.255-2.432,5.767
		c-1.068,0.124-0.484,1.787-0.498,2.726c-0.063,4.307-0.033,8.613-0.023,12.918c0.002,0.992,0.201,2.044-1.225,2.27
		c-1.213,0.19-1.951-0.634-2.418-1.43c-0.945-1.61-1.639-3.368-2.447-5.058c-3.203-6.68-8.472-11.363-15.486-13.043
		c-3.147-0.753-3.516-2.693-2.593-3.807c1.744-2.111,1.307-4.205,1.322-6.35c0.063-9.878-0.006-19.759,0.064-29.637
		c0.01-1.435-0.842-3.289,0.535-4.284c3.299-2.382,2.45-5.75,2.453-8.893c0.029-31.41,0-62.817,0.052-94.226
		c0.004-2.625-0.795-5.428,1.41-7.8c0.505-0.542,0.035-2.237-1.399-1.888c-5.431,1.325-7.01-2.607-8.5-6.301
		c-1.227-3.037-1.079-5.767,1.263-8.849c4.388-5.775,10.241-10.446,13.28-17.247c0.705-1.576,2.387-1.673,2.77-0.466
		c1.506,4.773,6.748,5.143,9.373,8.485c8.875,2.736,9.732,10.482,10.545,17.799C304.994,138.244,304.484,144.126,304.484,149.952z"
		/>
	<path fill-rule="evenodd" clip-rule="evenodd" d="M312.09,838.786c0,3.036,0.855,6.409-0.184,9.036
		c-1.965,4.964-1.412,10.291-3.4,15.283c-2.529,6.34-5.971,12.196-8.592,18.456c-0.842,2.01-2.352,2.582-4.564,2.933
		c-6.645,1.051-12.024-1.661-16.683-5.584c-4.473-3.768-8.937-7.453-13.821-10.686c-3.247-2.149-4.681-5.15-4.673-9.49
		c0.009-5.728,2.542-11.037,1.91-16.849c-0.187-1.71,1.512-4.105,3.014-5.433c5.45-4.815,8.837-11.445,14.44-16.064
		c1.721-1.416,2.15-3.012,2.211-5.204c0.154-5.629,1.613-7.192,7.236-8.851l9.561,0.471c1.428,0.148,1.953,1.461,2.838,2.279
		c0.684,0.631,1.48,1.138,1.629,2.355c0.779,6.369,3.412,11.909,8.08,16.353c1.111,1.06,0.994,2.177,0.998,3.404
		C312.092,833.727,312.09,836.256,312.09,838.786z"/>
	<path fill-rule="evenodd" clip-rule="evenodd" d="M219.301,762.605c0.58,2.514-1.109,5.835,1.427,8.771
		c0.889,1.029-0.719,2.412-1.715,2.916c-2.708,1.37-5.52,2.59-8.398,3.54c-1.334,0.439-2.799-0.041-4.092,1.268
		c-0.858,0.867-1.835,0.36-2.525-1.26c-3.174-7.451-8.127-13.706-13.941-19.298c-4.601-4.426-8.482-9.36-11.952-14.772
		c-3.054-4.761-8.389-7.24-13.261-9.942c-3.089-1.712-6.684-2.484-9.253-5.169c-3.524-3.681-7.508-6.845-8.269-12.596
		c-0.261-1.97-1.783-4.309-3.052-6.259c-1.836-2.817-1.705-6.256-0.77-8.604c1.448-3.637,6.736-3.321,9.292-6.494
		c0.975-1.209,2.884-0.491,4.313-0.372c0.815,0.067,1.655,0.967,2.31,1.66c1.989,2.106,4.717,3.53,6.472,5.61
		c1.758,2.086,2.982,4.778,4.636,7.146c6.928,9.922,16.104,17.874,28.8,22.031c2.361,0.774,4.756,1.725,5.586,4.565
		c1.031,3.524,4.045,5.521,6.445,7.955C218.045,750.086,219.301,752.94,219.301,762.605z"/>
	<path fill-rule="evenodd" clip-rule="evenodd" d="M159.977,632.592c1.027,2.083-2.555,2.604-1.583,4.668
		c-2.353,2.176-4.073,4.841-6.008,7.366c-4.921,6.425-10.192,12.595-15.56,18.659c-2.056,2.322-1.717,5.151-0.988,7.063
		c1.573,4.126,2.519,8.755,5.638,12.061c1.544,1.636,1.145,2.601,0.25,4.014c-2.291,3.61-4.524,7.26-6.864,10.839
		c-0.69,1.058-1.668,1.665-3.149,1.604c-1.582-0.063-1.557-1.153-2.285-2.046c-6.58-8.072-13.061-16.197-18.559-25.065
		c-4.179-0.638-2.76-2.686-1.622-5.225c2.489-5.556,5.699-10.777,6.828-16.992c0.412-2.267,1.932-5.259,4.563-6.375
		c4.348-1.841,7.033-5.517,10.026-8.735c5.25-5.644,12.355-8.91,17.672-14.417c0.731-0.758,2.271-0.501,2.437,0.534
		c0.687,4.269,3.773,6.312,6.984,8.446C158.897,629.747,160.333,630.727,159.977,632.592z"/>
	<path fill-rule="evenodd" clip-rule="evenodd" d="M321.217,142.091c0,6.328,0.018,12.656-0.012,18.983
		c-0.008,1.756-2.105,3.219-3.416,2.236c-1.893-1.42-4.529-2.567-4.145-5.625c0.354-2.822-1.152-5.271-2.121-7.486
		c-1.385-3.17-2.992-6.07-2.455-9.607c0.506-3.333-1.215-6.888,1.387-10.097c0.732-0.905,0.258-2.958,0.033-4.439
		c-0.643-4.258,0.416-6.201,4.012-6.784c0.98-0.157,2.408,0.342,2.932-0.172c3.02-2.976,3.342,0.224,3.682,1.752
		c0.43,1.93,0.104,4.028,0.104,6.052C321.217,131.967,321.217,137.028,321.217,142.091z"/>
	<path fill-rule="evenodd" clip-rule="evenodd" d="M310.568,177.022c0-2.266,0.02-4.532-0.006-6.798
		c-0.025-2.425,1.455-3.457,3.57-3.789c0.984-0.155,2.012,0.006,3.016-0.034c2.027-0.08,4.164-0.269,5.207,1.959
		c0.758,1.623,0.08,3.002-0.658,4.699c-0.922,2.118-1.295,5.355-0.285,7.245c1.936,3.625,1.031,7.214,1.271,10.806
		c0.094,1.383,0.826,3.655-0.756,4.036c-1.963,0.472-4.168,0.649-6.188-1.333c-3.326-3.261-4.979-6.991-5.16-11.505
		C310.51,180.548,310.568,178.783,310.568,177.022z"/>
	<path fill-rule="evenodd" clip-rule="evenodd" fill="#FFFFFF" d="M274.062,683.213c-0.001,4.41-2.457,8.529-1.565,13.062
		c0.044,0.228-0.541,0.594-0.869,0.85c-0.025,0.02-0.358-0.315-0.515-0.515c-2.876-3.649-1.879-14.168,1.607-16.999
		c0.788-0.639-0.455-0.701,0.529-0.49c0.331,0.071,0.734,0.666,0.777,1.057C274.136,681.178,274.062,682.199,274.062,683.213z"/>
	<path fill-rule="evenodd" clip-rule="evenodd" fill="#FFFFFF" d="M299.936,691.014c-0.057,1.849-2.775,6.079-3.816,6.204
		c-0.209,0.025-0.727-0.704-0.725-1.083c0.012-1.873,2.336-3.053,1.547-5.282c-0.221-0.62,0.482-1.184,1.396-1.202
		C299.703,689.624,299.877,690.457,299.936,691.014z"/>
</g>
</svg>
